<svg xmlns="http://www.w3.org/2000/svg" viewBox="182.8 106.1 697.3 229.5"><path d="M314.05 262.13 C321.71 242.89 311.91 224.99 293.43 217.63 C280.63 212.53 268.11 213.45 254.76 212.41 C241.24 211.36 230.51 209.15 218.26 203.44 C213.93 201.42 209.9 197.68 206.03 202.73 C200.54 209.9 201.44 226.27 203.1 234.73 C208.05 260.06 226.3 282.48 251.81 288.84 C275.38 294.71 304.53 286.05 314.05 262.13 M368.13 169.49 C368.4 176.35 367.29 183.25 364.92 189.68 C364.45 190.96 361.34 197.08 361.34 197.51 C361.37 199.12 366.16 198.42 367.17 198.23 C377.13 196.32 387.82 188.19 393.55 179.99 C394.92 178.04 397.85 173.35 397.97 171.06 C398.1 168.89 396.37 166.9 394.18 166.84 C392.76 166.8 388.64 168.31 386.85 168.68 C380.68 169.99 374.4 170.44 368.13 169.49 M354.79 210.23 C353.8 209.72 352.65 209.52 351.48 208.82 C349.66 207.73 344.84 203.16 344.66 201.1 C344.61 200.45 348.05 196.46 348.69 195.51 C360.23 178.35 355.96 153.9 341.1 140.14 C323.33 123.68 296.38 122.47 275.08 132.58 C253.73 142.72 235.49 166.24 238.39 190.95 C238.49 191.83 238.96 195.18 239.61 195.55 C240.51 196.07 245.23 196.82 246.59 197.06 C265.14 200.33 282.97 198 301.26 204.47 C329.52 214.48 346.82 242.95 334.71 272.24 C334.4 272.98 333.14 274.88 333.31 275.47 C336.87 281.12 341.63 286.11 347.39 289.54 C348.81 290.39 349.98 290.8 351.4 291.48 C352.45 291.98 353.46 292.59 354.56 293.05 C357.42 294.25 366.76 296.16 363.28 301.06 C361.36 303.77 353.73 305.09 350.55 305.3 C336.61 306.2 323.51 300.53 312.23 292.94 C302.46 298.05 292.07 302.01 281.12 303.77 C238.73 310.59 201.87 284.31 191.41 243.51 C187.47 228.15 185.71 197.7 202.64 189.16 C209.35 185.78 215.35 187.92 221.89 190.34 C221.83 162.17 239.87 135.65 264.09 122.31 C301.28 101.83 350.34 112.13 365.96 154.08 C366.22 154.79 366.63 156.8 367.08 157.08 C372.13 159.06 377.46 158.96 382.77 158.3 C390.73 157.3 400.94 152.1 407.17 159.91 C415.71 170.61 403.64 187.85 395.54 195.32 C385.06 204.98 369.34 212.51 354.79 210.23" fill="#1D1A18"/><path d="M329.75 154.02 C321.08 155.5 321.72 178.25 332.58 176.74 C335.98 176.27 338.21 171.42 338.52 168.37 C339.05 163.04 336.96 152.8 329.75 154.02 M354.8 210.23 C372.96 219.52 383.07 234.58 380.98 255.7 C379.37 271.95 367.92 288.09 351.4 291.48 C349.98 290.8 348.81 290.39 347.39 289.54 C341.63 286.11 336.87 281.12 333.31 275.47 C333.14 274.88 334.4 272.98 334.71 272.24 C346.82 242.95 329.52 214.48 301.26 204.47 C282.98 198 265.14 200.33 246.59 197.06 C245.23 196.82 240.51 196.07 239.61 195.55 C238.96 195.18 238.49 191.84 238.39 190.95 C235.49 166.24 253.73 142.72 275.08 132.58 C296.38 122.47 323.33 123.68 341.1 140.14 C355.96 153.9 360.23 178.35 348.69 195.51 C348.05 196.46 344.61 200.45 344.66 201.1 C344.84 203.16 349.66 207.73 351.48 208.82 C352.65 209.52 353.8 209.72 354.8 210.23" fill="#FBCF24"/><path d="M218.26 203.44 C220.03 213.13 224.44 222.77 229.94 230.92 C245.3 253.66 272.23 267.19 299.86 265.04 C304.72 264.66 309.42 263.57 314.05 262.13 C304.53 286.05 275.38 294.71 251.81 288.84 C226.3 282.48 208.05 260.06 203.1 234.73 C201.44 226.27 200.54 209.9 206.03 202.73 C209.9 197.68 213.93 201.42 218.26 203.44" fill="#FBCF24"/><path d="M314.05 262.13 C309.42 263.57 304.72 264.66 299.86 265.04 C272.23 267.19 245.3 253.66 229.94 230.92 C224.44 222.77 220.03 213.13 218.26 203.44 C230.51 209.15 241.24 211.36 254.76 212.41 C268.11 213.45 280.63 212.53 293.43 217.63 C311.91 224.99 321.71 242.89 314.05 262.13" fill="#F7A324"/><path d="M368.13 169.49 C374.4 170.44 380.68 169.99 386.85 168.68 C388.64 168.31 392.75 166.8 394.18 166.84 C396.37 166.9 398.09 168.89 397.97 171.06 C397.85 173.35 394.92 178.04 393.55 179.99 C387.81 188.19 377.13 196.32 367.17 198.23 C366.16 198.42 361.37 199.12 361.34 197.51 C361.34 197.08 364.45 190.96 364.92 189.68 C367.29 183.25 368.4 176.35 368.13 169.49" fill="#F7A324"/><path d="M329.75 154.02 C336.96 152.8 339.05 163.04 338.52 168.37 C338.21 171.42 335.98 176.27 332.58 176.74 C321.72 178.25 321.08 155.5 329.75 154.02" fill="#1D1A18"/><path d="M479.52878039999996 198.26029999999997V246.56956099999996C479.52878039999996 259.13350799999995 471.97241199999996 264.79613199999994 461.03556299999997 264.79613199999994C451.4906766 264.79613199999994 443.7354564 259.66437899999994 443.7354564 248.69304499999998V198.26029999999997H413.9076864V252.58609899999996C413.9076864 276.47529399999996 431.0089412 289.21619799999996 451.092973 289.21619799999996C464.2171918 289.21619799999996 474.1597818 284.96923 479.52878039999996 278.42182099999997V286.73879999999997H509.3565504V198.26029999999997Z" fill="#1D1A18"/><path d="M603.4134518 198.26029999999997V206.57727899999998C596.8513424 199.85291299999997 587.1076042 195.78290199999998 573.7845336 195.78290199999998C547.7349478 195.78290199999998 526.2589534 216.13295699999998 526.2589534 242.49954999999997C526.2589534 268.86614299999997 547.7349478 289.21619799999996 573.7845336 289.21619799999996C587.1076042 289.21619799999996 596.8513424 285.14618699999994 603.4134518 278.42182099999997V286.73879999999997H633.2412218V198.26029999999997ZM579.7500876 264.088304C566.0293134 264.088304 556.0867234 255.77132499999996 556.0867234 242.49954999999997C556.0867234 229.22777499999995 566.0293134 220.91079599999995 579.7500876 220.91079599999995C593.4708618 220.91079599999995 603.4134518 229.22777499999995 603.4134518 242.49954999999997C603.4134518 255.77132499999996 593.4708618 264.088304 579.7500876 264.088304Z" fill="#1D1A18"/><path d="M702.8393518 289.21619799999996C722.3268282 289.21619799999996 739.2292312 280.19139099999995 747.7798586 266.388745L721.7302728 253.11696999999998C718.548644 259.31046499999997 711.1911274 263.02656199999996 702.4416482 263.02656199999996C689.5162812 263.02656199999996 679.9713948 254.70958299999995 679.9713948 242.49954999999997C679.9713948 230.28951699999996 689.5162812 221.972538 702.4416482 221.972538C711.1911274 221.972538 718.3497922 225.68863499999998 721.7302728 231.88212999999996L747.7798586 218.43339799999995C739.2292312 204.807709 722.1279764 195.78290199999998 702.8393518 195.78290199999998C672.6138782 195.78290199999998 650.1436248 216.13295699999998 650.1436248 242.49954999999997C650.1436248 268.86614299999997 672.6138782 289.21619799999996 702.8393518 289.21619799999996Z" fill="#1D1A18"/><path d="M855.1598306 286.73879999999997 817.9745439999999 242.49954999999997 854.1655715999999 198.26029999999997H819.3665066L789.5387366 237.01388299999996V162.86889999999997H759.7109666V286.73879999999997H789.5387366V247.63130299999997L821.3550246 286.73879999999997Z" fill="#1D1A18"/><path d="M864.0494418999999 163.67371999999997H857.3658949999999V164.89476039999997H859.9773471V171.55139999999997H861.4379898V164.89476039999997H864.0494418999999ZM872.6362505 163.67371999999997 869.6707031999999 167.88827879999997 866.7051558999999 163.67371999999997H865.2445131999999V171.55139999999997H866.7051558999999V165.91885879999998L869.5821794 170.01525239999998H869.759227L872.6362505 165.91885879999998V171.55139999999997H874.0968932V163.67371999999997Z" fill="#1D1A18"/><path d="M425.5064011 317.34989H414.4218809V318.210955H419.3583069V329.4048H420.5699751V318.210955H425.5064011Z" fill="#1D1A18"/><path d="M431.6544953 328.543735V323.7562136H438.8347513V322.8951486H431.6544953V318.210955H439.39570879999997V317.34989H430.4652654V329.4048H439.5079003V328.543735Z" fill="#1D1A18"/><path d="M452.07334829999996 329.59423430000004C455.01276559999997 329.59423430000004 457.5707318 328.4231859 458.8497149 326.64939200000003L457.79511479999996 326.18441690000003C456.762953 327.69989130000005 454.5639996 328.715948 452.07334829999996 328.715948C447.9447011 328.715948 445.095037 326.3394086 445.095037 323.37734500000005C445.095037 320.4152814 447.9447011 318.038742 452.07334829999996 318.038742C454.5415613 318.038742 456.7180764 319.03757740000003 457.7502382 320.5186092L458.8048383 320.0536341C457.5034169 318.29706150000004 454.967889 317.1604557 452.07334829999996 317.1604557C447.2939904 317.1604557 443.9058071 319.933085 443.9058071 323.37734500000005C443.9058071 326.82160500000003 447.2939904 329.59423430000004 452.07334829999996 329.59423430000004Z" fill="#1D1A18"/><path d="M474.4667717 317.34989V322.7745995H465.3343836V317.34989H464.14515370000004V329.4048H465.3343836V323.6356645H474.4667717V329.4048H475.6560016V317.34989Z" fill="#1D1A18"/><path d="M492.37253510000005 317.34989V327.7171126L483.08307890000003 317.34989H482.0509171V329.4048H483.24014700000004V319.03757740000003L492.5071649 329.4048H493.56176500000004V317.34989Z" fill="#1D1A18"/><path d="M507.15937479999997 329.59423430000004C511.6919114 329.59423430000004 515.2596010999999 326.82160500000003 515.2596010999999 323.37734500000005C515.2596010999999 319.933085 511.6919114 317.1604557 507.15937479999997 317.1604557C502.62683819999995 317.1604557 499.0591485 319.933085 499.0591485 323.37734500000005C499.0591485 326.82160500000003 502.62683819999995 329.59423430000004 507.15937479999997 329.59423430000004ZM507.15937479999997 328.715948C503.2775489 328.715948 500.2483784 326.3394086 500.2483784 323.37734500000005C500.2483784 320.4152814 503.2775489 318.038742 507.15937479999997 318.038742C511.0412007 318.038742 514.0703712 320.4152814 514.0703712 323.37734500000005C514.0703712 326.3394086 511.0412007 328.715948 507.15937479999997 328.715948Z" fill="#1D1A18"/><path d="M521.9462145 328.543735V317.34989H520.7569846V329.4048H529.3508535000001V328.543735Z" fill="#1D1A18"/><path d="M540.3904971000001 329.59423430000004C544.9230337 329.59423430000004 548.4907234 326.82160500000003 548.4907234 323.37734500000005C548.4907234 319.933085 544.9230337 317.1604557 540.3904971000001 317.1604557C535.8579605 317.1604557 532.2902708 319.933085 532.2902708 323.37734500000005C532.2902708 326.82160500000003 535.8579605 329.59423430000004 540.3904971000001 329.59423430000004ZM540.3904971000001 328.715948C536.5086712 328.715948 533.4795007 326.3394086 533.4795007 323.37734500000005C533.4795007 320.4152814 536.5086712 318.038742 540.3904971000001 318.038742C544.272323 318.038742 547.3014935 320.4152814 547.3014935 323.37734500000005C547.3014935 326.3394086 544.272323 328.715948 540.3904971000001 328.715948Z" fill="#1D1A18"/><path d="M568.9320147 323.7906562H561.0561713999999V324.6517212H567.7203465C567.4735251999999 326.9077115 565.1623803 328.715948 561.3478693 328.715948C557.1294689 328.715948 554.2798048 326.3394086 554.2798048 323.37734500000005C554.2798048 320.4152814 557.1294689 318.038742 561.2581160999999 318.038742C563.7263290999999 318.038742 565.9252825 319.03757740000003 566.9574442999999 320.55305180000005L568.0120443999999 320.0708554C566.7106229999999 318.3315041 564.1750950999999 317.1604557 561.2581160999999 317.1604557C556.4787582 317.1604557 553.0905749 319.933085 553.0905749 323.37734500000005C553.0905749 326.82160500000003 556.4787582 329.59423430000004 561.3478693 329.59423430000004C566.037474 329.59423430000004 568.9320147 327.16603100000003 568.9320147 324.2556313Z" fill="#1D1A18"/><path d="M584.1900587 317.34989H582.8437607000001L577.8848964 323.5667793L572.9035938000001 317.34989H571.5572958L577.2790623000001 324.4450656V329.4048H578.4682922000001V324.4450656Z" fill="#1D1A18"/><path d="M607.9073417999999 329.4048H609.1638866L603.0831072999999 317.34989H601.8265624999999L595.7233448999999 329.4048H596.9798897L598.5056940999999 326.3394086H606.3815374ZM598.9544600999999 325.4783436 602.4548348999999 318.46927450000004 605.9552097 325.4783436Z" fill="#1D1A18"/><path d="M624.2648625 317.34989V327.7171126L614.9754063 317.34989H613.9432445V329.4048H615.1324744V319.03757740000003L624.3994923 329.4048H625.4540924V317.34989Z" fill="#1D1A18"/><path d="M637.7502807999999 317.34989H631.8490079V329.4048H637.7502807999999C642.0808727 329.4048 645.1549198 326.70105590000003 645.1549198 323.37734500000005C645.1549198 320.0536341 642.0808727 317.34989 637.7502807999999 317.34989ZM637.7502807999999 328.543735H633.0382377999999V318.210955H637.7502807999999C641.4526003 318.210955 643.9881282 320.5186092 643.9881282 323.37734500000005C643.9881282 326.2360808 641.4526003 328.543735 637.7502807999999 328.543735Z" fill="#1D1A18"/><path d="M660.3232105999999 328.543735V323.7562136H667.5034665999999V322.8951486H660.3232105999999V318.210955H668.0644241V317.34989H659.1339806999999V329.4048H668.1766156V328.543735Z" fill="#1D1A18"/><path d="M683.9058639000001 317.34989V327.7171126L674.6164077000001 317.34989H673.5842459V329.4048H674.7734758V319.03757740000003L684.0404937000001 329.4048H685.0950938000001V317.34989Z" fill="#1D1A18"/><path d="M701.1384782999999 317.34989H690.0539580999999V318.210955H694.9903840999999V329.4048H696.2020522999999V318.210955H701.1384782999999Z" fill="#1D1A18"/><path d="M707.2865725 328.543735V323.7562136H714.4668285V322.8951486H707.2865725V318.210955H715.0277860000001V317.34989H706.0973426V329.4048H715.1399775000001V328.543735Z" fill="#1D1A18"/><path d="M730.4653364 329.4048H731.8340727L727.9298084999999 324.34173780000003C729.9268172 323.9284266 731.3853067 322.55072260000003 731.3853067 320.9146991C731.3853067 318.9514709 729.2985448 317.34989 726.7405785999999 317.34989H720.5476077999999V329.4048H721.7368376999999V324.46228690000004H726.695702ZM721.7368376999999 318.210955H726.7405785999999C728.6478341 318.210955 730.1960767999999 319.416446 730.1960767999999 320.9146991C730.1960767999999 322.39573090000005 728.6478341 323.60122190000004 726.7405785999999 323.60122190000004H721.7368376999999Z" fill="#1D1A18"/><path d="M746.1048314999999 317.34989H735.0203113V318.210955H739.9567373V329.4048H741.1684055V318.210955H746.1048314999999Z" fill="#1D1A18"/><path d="M760.5102201 329.4048H761.7667649L755.6859856 317.34989H754.4294408L748.3262232 329.4048H749.582768L751.1085724 326.3394086H758.9844157ZM751.5573383999999 325.4783436 755.0577132 318.46927450000004 758.558088 325.4783436Z" fill="#1D1A18"/><path d="M766.5461227999999 317.34989V329.4048H767.7353526999999V317.34989Z" fill="#1D1A18"/><path d="M784.4518862 317.34989V327.7171126L775.16243 317.34989H774.1302681999999V329.4048H775.3194980999999V319.03757740000003L784.586516 329.4048H785.6411161V317.34989Z" fill="#1D1A18"/><path d="M806.2394754999999 317.34989H804.7361093999999L799.1265344 324.4795082L793.5169593999999 317.34989H792.0360315999999V329.4048H793.2252614999999V318.69315140000003L799.0367812 326.0983104H799.2387259L805.0502455999999 318.69315140000003V329.4048H806.2394754999999Z" fill="#1D1A18"/><path d="M813.8236208999999 328.543735V323.7562136H821.0038769V322.8951486H813.8236208999999V318.210955H821.5648344V317.34989H812.6343909999999V329.4048H821.6770259V328.543735Z" fill="#1D1A18"/><path d="M837.4062742 317.34989V327.7171126L828.116818 317.34989H827.0846561999999V329.4048H828.2738860999999V319.03757740000003L837.540904 329.4048H838.5955041V317.34989Z" fill="#1D1A18"/><path d="M854.6388885999997 317.34989H843.5543683999998V318.210955H848.4907943999998V329.4048H849.7024625999998V318.210955H854.6388885999997Z" fill="#1D1A18"/></svg>
